<?xml version="1.0" encoding="utf-8"?>
<!-- Generator: Adobe Illustrator 24.1.2, SVG Export Plug-In . SVG Version: 6.00 Build 0)  -->
<svg version="1.1" id="Layer_1" xmlns="http://www.w3.org/2000/svg" xmlns:xlink="http://www.w3.org/1999/xlink" x="0px" y="0px"
	 viewBox="0 0 39.7 36.9" style="enable-background:new 0 0 39.7 36.9;" xml:space="preserve">
<style type="text/css">
	.st0{fill:#73BA62;}
</style>
<g>
	<path class="st0" d="M39.3,21.7c0-0.7-0.2-1.3-0.5-1.8c-0.1-0.3-0.3-0.5-0.4-0.7c1-0.8,1.4-1.7,1.3-2.6c0-0.5-0.2-0.9-0.4-1.2
		c-0.6-1.1-1.8-1.8-1.8-1.8c-0.1-0.1-0.3-0.1-0.4-0.1l-10.2,0.1c-0.4,0-0.6-0.1-0.8-0.2c0-0.1,0-0.2,0-0.2v-0.1
		c0-0.4,0.3-3.6,0.5-5.6c0.3-3.9-1.2-5.7-1.9-6.2C24.3,0.9,24,0.8,24,0.8c-0.3-0.2-1.7-1-3-0.6c-0.4,0.2-1,0.5-1.3,1.4
		c0,0.1,0,0.3,0,0.4c1.2,8.9-4.9,13.1-7.1,14.4c-0.8-1.2-2.2-2.1-3.7-2.1H4.4c-2.4,0-4.4,2-4.4,4.4v13.8c0,2.4,2,4.4,4.4,4.4h4.3
		c2,0,3.6-1.3,4.2-3.1l3.7,1c0,0,0.1,0,0.2,0h18.9c0.2,0,0.4-0.1,0-0.3c0.1,0,0.3-0.1,0.3,0.1c1.1-0.9,1.8-1.9,1.8-2.9
		c0.1-0.6-0.1-1.1-0.3-1.5c-0.1-0.3-0.2-0.6-0.4-0.8c1-0.9,1.4-1.8,1.4-2.8c0-0.4-0.1-0.7-0.2-1c-0.1-0.6-0.4-1-0.6-1.4
		C38.7,23.5,39.3,22.6,39.3,21.7z M8.8,35.1H4.4c-1.5,0-2.7-1.2-2.7-2.7V18.7c0-1.5,1.2-2.7,2.7-2.7h4.3c1.1,0,2,0.6,2.4,1.5
		c0,0.1,0,0.2,0.1,0.4c0,0.1,0.1,0.2,0.1,0.2c0,0.2,0.1,0.4,0.1,0.5v13.7C11.5,33.9,10.3,35.1,8.8,35.1z M35.6,28.7
		c-0.2,0.1-0.3,0.3-0.3,0.6c0,0.3,0.1,0.5,0.3,0.7c0,0,0.7,0.7,0.7,1.5c0,0.5-0.3,1.1-1,1.6H16.8l-3.6-1V18.7c0-0.2,0-0.4-0.1-0.7
		c1.4-0.8,4.5-2.8,6.5-6.4c0.1-0.1,0.1-0.2,0.2-0.4c0-0.1,0.1-0.2,0.1-0.3c1.2-2.3,1.9-5.3,1.4-9c0.1-0.2,0.2-0.2,0.2-0.2
		c0.4-0.2,1.2,0.1,1.6,0.4c0,0,1.9,1.1,1.6,5.2c-0.2,1.5-0.5,5-0.5,5.6c0,0.3-0.1,1.1,0.5,1.7c0.5,0.5,1.2,0.7,2.1,0.7l10-0.1
		c0.3,0.2,0.9,0.7,1,1.3c0,0.5-0.4,1.1-1.2,1.8c-0.2,0.1-0.3,0.3-0.3,0.6s0.1,0.5,0.3,0.7c0.1,0,1,0.8,0.9,1.8c0,0.7-0.5,1.4-1.4,2
		c-0.3,0.2-0.4,0.4-0.4,0.7c0,0.3,0.1,0.5,0.3,0.7c0,0.1,0.9,0.8,0.9,1.7C37.1,27.2,36.5,28,35.6,28.7z M38.6,19.6
		c-0.1-0.1-0.2-0.3-0.3-0.4c0,0,0,0,0,0C38.5,19.3,38.6,19.4,38.6,19.6z M37.4,29.9c-0.1-0.1-0.2-0.2-0.2-0.3c0,0,0,0,0,0
		C37.3,29.6,37.3,29.7,37.4,29.9z M37.9,24.6c0-0.1-0.1-0.1-0.1-0.2c0,0,0,0,0,0C37.8,24.4,37.9,24.5,37.9,24.6z"/>
	<path class="st0" d="M8.2,28.9c-1.4,0-2.6,1.2-2.6,2.6c0,1.4,1.2,2.6,2.6,2.6c1.4,0,2.6-1.1,2.6-2.6C10.8,30.1,9.6,28.9,8.2,28.9z
		 M8.2,32.4c-0.5,0-0.9-0.4-0.9-0.9c0-0.5,0.4-0.9,0.9-0.9s0.9,0.4,0.9,0.9C9.1,32,8.7,32.4,8.2,32.4z"/>
</g>
</svg>
