<?xml version="1.0" encoding="utf-8"?>
<!-- Generator: Adobe Illustrator 24.1.2, SVG Export Plug-In . SVG Version: 6.00 Build 0)  -->
<svg version="1.1" id="Layer_1" xmlns="http://www.w3.org/2000/svg" xmlns:xlink="http://www.w3.org/1999/xlink" x="0px" y="0px"
	 viewBox="0 0 39.7 36.9" style="enable-background:new 0 0 39.7 36.9;" xml:space="preserve">
<style type="text/css">
	.st0{fill:#73BA62;}
</style>
<g>
	<path class="st0" d="M25.1,26v-1c0-0.4-0.3-0.8-0.8-0.8c-0.4,0-0.8,0.3-0.8,0.8v1H4.7V15.9L14,6.3L16.7,9c0.4,0.3,0.9,0.3,1.2,0
		c0.3-0.3,0.3-0.9,0-1.2l-3.2-3.3c-0.4-0.3-0.9-0.3-1.2,0L2.9,15.4L2,14.5L12.6,3.6c0.1-0.1,0.1-0.1,0.1-0.1L14.1,2l1.3,1.4l0.1,0.1
		l4.9,5c0.4,0.3,0.9,0.3,1.2,0c0.1-0.2,0.2-0.4,0.2-0.6s0-0.4-0.2-0.6l-1.4-1.4v-3H23v5.4c0,0.4,0.4,0.8,0.8,0.8
		c0.4,0,0.8-0.4,0.8-0.9V2c0-0.4-0.3-0.8-0.8-0.8h-4.4c-0.4,0-0.8,0.3-0.8,0.8v2.2l-1.8-1.8l-0.1-0.1l-2.1-2.1
		C14.5,0.1,14.4,0,14.2,0s-0.5,0-0.6,0.2l-2.1,2.1c-0.1,0.1-0.1,0.1-0.1,0.1L0.2,13.9c-0.3,0.3-0.3,0.9,0,1.2l2.1,2.1
		c0.2,0.1,0.4,0.2,0.6,0.2c0.1,0,0.1,0,0.2,0V26H2c-0.4,0-0.8,0.3-0.8,0.8c0,0.4,0.3,0.8,0.8,0.8h23.1c0.4,0,0.8-0.4,0.8-0.8
		C25.9,26.4,25.6,26,25.1,26z"/>
	<path class="st0" d="M39.2,32.7l-9.1-9.4c-0.4-0.3-0.8-0.5-1.3-0.5c-0.5,0-0.9,0.2-1.2,0.4l-1.1-1.2c1.1-1.4,1.7-3.3,1.7-5.1
		c0-2.2-0.8-4.2-2.3-5.7S22.5,9,20.4,9c-2.1,0-4,0.9-5.5,2.3c-1.5,1.6-2.3,3.6-2.3,5.7c0,2.2,0.8,4.2,2.3,5.7s3.4,2.3,5.5,2.3
		c1.8,0,3.5-0.6,4.9-1.7l1.1,1.2c-0.3,0.3-0.5,0.8-0.5,1.3c0,0.5,0.2,1,0.5,1.3l9.1,9.4c0.4,0.3,0.8,0.5,1.3,0.5s0.9-0.2,1.3-0.5
		l1.1-1.1c0.3-0.3,0.5-0.8,0.5-1.3S39.5,33,39.2,32.7z M27.6,25.6v-0.1l1.1-1.1c0-0.1,0.1-0.1,0.1-0.1s0.1,0,0.1,0.1l9.1,9.4v0.1V34
		l-1.1,1.1c0,0.1-0.1,0.1-0.2,0L27.6,25.6L27.6,25.6z M20.4,10.7c1.7,0,3.2,0.7,4.4,1.9c0.9,0.9,1.4,2,1.7,3.2
		c0-0.1-0.1-0.2-0.2-0.3c-0.2-0.3-0.7-0.3-1-0.1L21,11C20.8,10.9,20.6,10.8,20.4,10.7c-0.2,0.1-0.4,0.1-0.6,0.3
		c-0.3,0.3-0.3,0.9,0,1.2l3.7,3.8v4.3c0,0.4,0.4,0.8,0.8,0.8c0.4,0,0.8-0.4,0.8-0.8v-2.9c0.1,0,0.1,0,0.2,0c0.2,0,0.4-0.1,0.5-0.2
		l0.5-0.5c0.1-0.1,0.2-0.3,0.2-0.5c0,0.3,0.1,0.6,0.1,0.9c0,1.6-0.5,3.1-1.6,4.2c-0.1,0-0.2,0.1-0.3,0.2c-0.1,0.1-0.1,0.2-0.2,0.3
		c-1.2,1-2.6,1.6-4.1,1.6c-1.7,0-3.2-0.6-4.4-1.8c-1.2-1.2-1.8-2.8-1.8-4.5c0-1.7,0.6-3.3,1.8-4.5C17.2,11.4,18.8,10.7,20.4,10.7z
		 M26.5,15.8c0,0,0,0.1,0,0.1C26.5,15.9,26.5,15.8,26.5,15.8z"/>
</g>
</svg>
