<?xml version="1.0" encoding="utf-8"?>
<!-- Generator: Adobe Illustrator 24.1.2, SVG Export Plug-In . SVG Version: 6.00 Build 0)  -->
<svg version="1.1" id="Layer_1" xmlns="http://www.w3.org/2000/svg" xmlns:xlink="http://www.w3.org/1999/xlink" x="0px" y="0px"
	 viewBox="0 0 32 36.9" style="enable-background:new 0 0 32 36.9;" xml:space="preserve">
<style type="text/css">
	.st0{fill:#73BA62;}
</style>
<g>
	<path class="st0" d="M7.7,25.9c0,4.7,3.7,8.4,8.3,8.4s8.3-3.8,8.3-8.4c0-4.7-3.7-8.4-8.3-8.4S7.7,21.3,7.7,25.9z M16,32.9
		c-3.7,0-6.8-3.1-6.8-6.9s3-6.9,6.8-6.9s6.9,3,6.8,6.9C22.9,29.8,19.8,32.9,16,32.9z"/>
	<path class="st0" d="M32,0.4C31.9,0.1,31.7,0,31.4,0h-7.5c-0.3,0-0.6,0.2-0.8,0.4l-7,14.1L9,0.4C8.7,0.2,8.5,0,8.2,0H0.7
		C0.5,0,0.3,0.1,0.1,0.4C0,0.6,0,0.8,0.1,1.1l8.3,17c-2.1,2-3.3,4.8-3.3,7.9c0,6,4.9,10.9,10.9,10.9s10.9-5,10.9-11
		c0-3.1-1.3-5.8-3.3-7.8l8.3-17C32.1,0.9,32.1,0.6,32,0.4z M25.5,25.9c0,5.2-4.2,9.4-9.4,9.4s-9.4-4.2-9.4-9.4s4.2-9.4,9.4-9.4
		S25.5,20.7,25.5,25.9z M9.6,17.1L1.9,1.5h5.9l6.8,13.6C12.7,15.4,11,16.1,9.6,17.1z M17.4,15.1l6.8-13.6h5.9l-7.7,15.6
		C21.1,16,19.2,15.3,17.4,15.1z"/>
	<path class="st0" d="M21.8,24.2c-0.1-0.3-0.4-0.5-0.7-0.5h-3.3l-1-3.1c-0.1-0.3-0.4-0.5-0.7-0.5c-0.3,0-0.6,0.2-0.7,0.5l-1,3.1H11
		c-0.3,0-0.6,0.2-0.7,0.5c-0.1,0.3,0,0.6,0.3,0.8l2.6,1.9l-1,3.1c-0.1,0.3,0,0.6,0.3,0.8c0.1,0.1,0.2,0.1,0.4,0.1s0.3-0.1,0.5-0.2
		l2.6-1.9l2.6,2c0.3,0.2,0.6,0.2,0.9,0s0.4-0.5,0.3-0.8l-1-3.1l2.6-1.9C21.8,24.8,21.9,24.5,21.8,24.2z M17.1,25h1.5l-1.2,0.9
		c-0.3,0.2-0.4,0.5-0.3,0.8l0.5,1.4l-1.2-0.9c-0.3-0.2-0.6-0.2-0.9,0l-1.2,0.9l0.5-1.4c0.1-0.3,0-0.6-0.3-0.8L13.3,25h1.5
		c0.3,0,0.6-0.2,0.7-0.5l0.5-1.4l0.4,1.4C16.5,24.8,16.8,25,17.1,25z"/>
</g>
</svg>
