<?xml version="1.0" encoding="utf-8"?>
<!-- Generator: Adobe Illustrator 24.1.2, SVG Export Plug-In . SVG Version: 6.00 Build 0)  -->
<svg version="1.1" id="Layer_1" xmlns="http://www.w3.org/2000/svg" xmlns:xlink="http://www.w3.org/1999/xlink" x="0px" y="0px"
	 viewBox="0 0 34 36.9" style="enable-background:new 0 0 34 36.9;" xml:space="preserve">
<style type="text/css">
	.st0{fill:#73BA62;}
</style>
<g>
	<path class="st0" d="M33.6,33.5l-6.4-6.6c-0.6-0.5-1.5-0.6-2.1-0.2L24.4,26c0.8-1,1.2-2.3,1.2-3.6c0-1.6-0.6-3.1-1.7-4.2
		c-1.1-1.1-2.5-1.7-4.1-1.7c-1.5,0-3,0.6-4.1,1.7c-1.1,1.1-1.7,2.6-1.7,4.2c0,1.6,0.7,3.1,1.8,4.3c1.1,1.1,2.5,1.7,4.1,1.7
		c1.3,0,2.6-0.5,3.5-1.3l0.7,0.7c-0.4,0.6-0.3,1.5,0.2,2l6.4,6.6c0.3,0.3,0.7,0.5,1.1,0.5c0.5,0,0.9-0.2,1.2-0.5l0.6-0.5
		c0.3-0.4,0.5-0.7,0.5-1.2S33.9,33.8,33.6,33.5z M25.3,28.6v-0.1l0.6-0.6H26c0,0,0.1,0,0.1,0.1l6.4,6.5v0.1v0.1l-0.6,0.6
		c0,0.1-0.1,0.1-0.2,0L25.3,28.6L25.3,28.6z M19.9,26.8c-1.2,0-2.3-0.5-3.1-1.3c-0.8-0.8-1.3-1.9-1.3-3.1c0-1.1,0.5-2.3,1.3-3.1
		c0.8-0.8,1.9-1.3,3.1-1.3c1.1,0,2.2,0.5,3.1,1.3c0.8,0.8,1.3,1.9,1.3,3.1c0,1.1-0.5,2.3-1.3,3.1S21.1,26.8,19.9,26.8z"/>
	<path class="st0" d="M17.5,28.6c-0.3,0.1-0.6,0.2-1,0.2H4.1c-1.4,0-2.6-1.2-2.6-2.7v-4.7c0-0.4,0.5-1,1.2-1.6
		c0.8-0.6,1.7-1.1,2.7-1.4L6.8,18c0,2.6,1.6,4.7,3.6,4.7c1.9,0,3.6-2.1,3.8-4.6l0.7,0.2c0.1,0,0.1,0,0.2,0c0.3,0,0.6-0.2,0.7-0.5
		c0-0.2,0-0.4-0.1-0.6c-0.1-0.1-0.2-0.2-0.4-0.3l-1.6-0.4c-0.1,0-0.1-0.1-0.2-0.1l-0.9-0.3v-0.4c2.1-0.8,3.7-2.9,3.7-5.4V5.8
		c0-3.2-2.6-5.8-5.7-5.8C7.4,0,4.9,2.6,4.9,5.8v4.5c0,2.4,1.5,4.5,3.5,5.3V16L5,17c-1.2,0.3-2.3,0.9-3.2,1.6
		c-1.1,0.9-1.7,1.8-1.7,2.8v4.7c0,2.3,1.8,4.2,4.1,4.2h12.5c0.5,0,1.1-0.1,1.5-0.3c0.4-0.2,0.6-0.6,0.4-1
		C18.3,28.6,17.9,28.4,17.5,28.6z M8.3,17.9c0-0.1,0-0.2,0-0.3L9,17.4c0,0,0.1,0,0.1,0c0.3,0,0.6-0.2,0.7-0.5c0.1-0.1,0.1-0.3,0-0.5
		V16c0.3,0,0.5,0.1,0.8,0.1c0.2,0,0.4,0,0.6,0v0.4c-0.1,0.4,0.1,0.8,0.5,0.9l1,0.3c0,0.1,0,0.2,0,0.2c0,1.8-1,3.3-2.2,3.3
		C9.3,21.2,8.3,19.7,8.3,17.9z M6.4,6c1-1,1.9-1.5,2.4-1.3c0.3,0,0.5,0.2,0.8,0.6c0.3,0.3,0.7,0.7,1.3,1c0.3,0.1,0.8,0.3,1.5,0.3
		c0.7,0,1.5-0.2,2.4-0.6v4.3c0,2.4-1.9,4.3-4.2,4.3s-4.2-1.9-4.2-4.3V6z M10.6,1.5c1.8,0,3.4,1.2,4,3c-1.7,0.9-2.5,0.7-3.2,0.4
		c-0.3-0.2-0.5-0.4-0.8-0.7c-0.4-0.4-0.8-0.8-1.5-1c-0.7-0.1-1.4,0-2.1,0.5C7.7,2.4,9,1.5,10.6,1.5z M10.4,21.6
		C10.4,21.6,10.4,21.6,10.4,21.6c-0.4,0-0.7-0.1-1-0.3C9.7,21.5,10.1,21.6,10.4,21.6z"/>
</g>
</svg>
