<?xml version="1.0" encoding="utf-8"?>
<!-- Generator: Adobe Illustrator 24.1.2, SVG Export Plug-In . SVG Version: 6.00 Build 0)  -->
<svg version="1.1" id="Layer_1" xmlns="http://www.w3.org/2000/svg" xmlns:xlink="http://www.w3.org/1999/xlink" x="0px" y="0px"
	 viewBox="0 0 36.9 36.9" style="enable-background:new 0 0 36.9 36.9;" xml:space="preserve">
<style type="text/css">
	.st0{fill:#73BA62;}
</style>
<g>
	<path class="st0" d="M19.7,28.3c-0.1-0.1-0.3-0.1-0.5-0.1c-0.2,0.1-0.4,0.1-0.6,0.1l-0.4,0.1l-1.3,3.7c-0.5,0.1-0.9,0-1.4,0l-0.8-4
		L14.3,28c-1.1-0.3-2.2-0.8-3.2-1.4l-0.4-0.2L7,28.6c-0.3-0.3-0.6-0.5-0.9-0.8l2-3.9l-0.3-0.4c-0.7-1-1.2-2.1-1.6-3.2l-0.1-0.4
		l-4.4-0.6c0-0.4-0.1-0.7-0.1-1.1l4-1.7V16c0.1-1.3,0.3-2.6,0.8-3.7l0.2-0.5L3.8,8.5C4,8.2,4.3,7.9,4.4,7.6l4,1.3l0.4-0.4
		c0.9-1,1.9-1.8,3.1-2.4L12.4,6V2c0.3-0.1,0.7-0.2,1.1-0.3l2,3.3L16,4.9c1.3-0.2,2.7-0.1,4,0.2l0.5,0.3l2.2-2.8
		c0.4,0.2,0.8,0.4,1.2,0.6l-0.3,3.4L24,6.8c1.1,0.8,2.1,1.8,2.9,2.9l0.3,0.4l3.1-0.6c0.2,0.5,0.4,0.9,0.6,1.4L28.5,13l0.1,0.4
		c0.1,0.4,0.2,0.8,0.3,1.2c0.1,1,0.2,2,0.1,2.9V18l2.8,1.6c-0.1,0.5-0.3,1-0.4,1.5l-1.7,0.1C29.3,21.3,29,21.6,29,22
		c0.1,0.4,0.4,0.7,0.8,0.7l2.7-0.1l0.2-0.5c0.3-0.9,0.6-1.9,0.7-2.8l0.1-0.5l-2.9-1.6c0-1-0.1-1.9-0.2-2.8c-0.1-0.3-0.1-0.6-0.2-0.9
		l2.4-2.2l-0.2-0.5c-0.3-1-0.7-1.8-1.2-2.6L31,7.8l-3.3,0.6c-0.8-1-1.7-1.9-2.7-2.6l0.4-3.6L25,2c-0.8-0.5-1.6-0.8-2.4-1.1l-0.5-0.2
		l-2.3,2.9c-1.1-0.2-2.4-0.3-3.6-0.2L14.1,0h-0.4c-0.8,0.1-1.7,0.3-2.4,0.6l-0.5,0.2V5c-1,0.6-2,1.3-2.8,2.1L3.8,5.8L3.5,6.2
		C3,6.8,2.6,7.5,2.2,8.2L2,8.7l2.5,2.7L5,12.1c-0.4,1.1-0.6,2.2-0.7,3.2L0,17v0.6c0,0.7,0.1,1.3,0.2,1.9c0.1,0.1,0.1,0.2,0.1,0.3
		l0.1,0.6l4.5,0.8c0.4,1,0.8,1.9,1.4,2.8l-2.1,4l0.4,0.4C5.2,29,5.8,29.5,6.4,30l0.5,0.3l3.8-2.2c0.9,0.5,1.8,0.9,2.8,1.2l0.9,4.1
		l0.5,0.1c0.6,0.1,1.2,0.1,1.8,0.1c0.3,0,0.6,0,0.8-0.2H18l1.2-3.8c0.1,0,0.1,0,0.2,0c0.2,0,0.4-0.1,0.5-0.3C20,29.2,20,29,20,28.8
		C20,28.6,19.9,28.4,19.7,28.3z M30.5,17.5l-0.2-0.1l0,0L30.5,17.5z"/>
	<path class="st0" d="M36.3,33.6l-6.5-6.5c-0.2-0.2-0.5-0.3-0.7-0.4c-0.4-0.2-0.9-0.1-1.3,0.2L27,26.1c0.8-1,1.3-2.3,1.3-3.7
		c0-1.5-0.6-3.1-1.7-4.2c-2.2-2.3-6-2.3-8.3,0c-1.1,1.1-1.7,2.6-1.7,4.2c0,0.4,0,0.7,0.1,1.1c-0.1-0.1-0.3-0.2-0.5-0.3
		c-2.9-0.4-5-2.6-5.5-5.5c-0.6-3.7,1.9-7.2,5.5-7.8c3.7-0.6,7.1,1.8,7.7,5.5c0.1,0.2,0.1,0.5,0.1,0.7s0.1,0.4,0.2,0.5
		c0.1,0.1,0.3,0.2,0.5,0.2c0.2,0,0.4-0.1,0.5-0.2c0.1-0.1,0.2-0.3,0.2-0.5c0-0.3,0-0.6-0.1-0.9c-0.4-2.1-1.5-4-3.3-5.3
		c-1.8-1.3-4-1.8-6.1-1.4c-4.5,0.7-7.4,5-6.7,9.5c0.6,3.4,3.3,6.1,6.7,6.7H16c0.4,0,0.7-0.3,0.8-0.7c0.2,1,0.7,1.9,1.5,2.6
		c1.2,1.1,2.6,1.7,4.2,1.7c1.3,0,2.5-0.4,3.5-1.2l0.8,0.7c-0.2,0.3-0.4,0.6-0.4,1c0,0.1,0,0.2,0,0.3c-0.1,0-0.2-0.1-0.2-0.1
		c-0.1-0.1-0.3,0-0.5,0.1c-0.1,0.1-0.2,0.1-0.3,0.2l-1.1-0.8c-0.1-0.1-0.3-0.1-0.5-0.1c-0.2,0-0.4,0.1-0.5,0.3
		c-0.1,0.1-0.1,0.3-0.1,0.5s0.1,0.4,0.3,0.5l1.9,1.5l0.3-0.3c0.3-0.2,0.5-0.4,0.8-0.6c0.2-0.1,0.3-0.3,0.3-0.5l0,0l0.1,0.1l6.5,6.5
		c0.3,0.3,0.7,0.5,1.1,0.5c0.4,0,0.8-0.3,1.2-0.5l0.6-0.6c0.3-0.3,0.5-0.7,0.5-1.1S36.7,33.9,36.3,33.6z M28,28.6L28,28.6l0.6-0.7
		h0.1c0,0,0,0,0.1,0l6.5,6.5v0.1v0.1l-0.6,0.6c0,0.1-0.1,0.1-0.2,0L28,28.6L28,28.6z M25.5,25.6c-0.1,0.1-0.1,0.2-0.2,0.3
		c-1.7,1.4-4.3,1.3-5.9-0.3c-1.7-1.7-1.7-4.6,0-6.3c0.8-0.8,1.9-1.3,3.1-1.3c1.1,0,2.2,0.4,3.2,1.3c1.6,1.6,1.7,4.4,0.1,6.1
		C25.7,25.5,25.6,25.5,25.5,25.6z"/>
</g>
</svg>
