<?xml version="1.0" encoding="utf-8"?>
<!-- Generator: Adobe Illustrator 24.1.2, SVG Export Plug-In . SVG Version: 6.00 Build 0)  -->
<svg version="1.1" id="Layer_1" xmlns="http://www.w3.org/2000/svg" xmlns:xlink="http://www.w3.org/1999/xlink" x="0px" y="0px"
	 viewBox="0 0 28.3 36.9" style="enable-background:new 0 0 28.3 36.9;" xml:space="preserve">
<style type="text/css">
	.st0{fill:#73BA62;}
</style>
<g>
	<path class="st0" d="M16.2,16.8c-0.3,0-0.5,0.1-0.6,0.3L14.1,19l-1.5-1.9c-0.2-0.2-0.4-0.3-0.6-0.3c-2.7,0-5,2.2-5,4.9v4.6
		c0,1.4,1,2.7,2.5,3v6.9c0,0.4,0.3,0.7,0.7,0.7c0.4,0,0.7-0.4,0.7-0.7V29c0.1-0.1,0.1-0.2,0.1-0.3s0-0.2-0.1-0.3v-6.2
		c0-0.4-0.3-0.7-0.7-0.7c-0.4,0-0.7,0.3-0.7,0.7v5.6c-0.5-0.3-0.9-0.9-0.9-1.5v-4.6c0-1.8,1.4-3.3,3.2-3.5l1.8,2.3
		c0.2,0.3,0.8,0.3,1.1,0l1.8-2.3c1.8,0.2,3.2,1.7,3.2,3.5v4.6c0,0.7-0.4,1.3-1,1.6v-5.7c0-0.4-0.3-0.7-0.7-0.7
		c-0.4,0-0.7,0.3-0.7,0.7v14c0,0.4,0.3,0.7,0.7,0.7c0.4,0,0.8-0.4,0.7-0.7v-6.9c1.4-0.3,2.5-1.6,2.5-3v-4.6
		C21.2,19,19,16.8,16.2,16.8z"/>
	<path class="st0" d="M14.1,29.1c-0.4,0-0.7,0.3-0.7,0.7v6.4c0,0.4,0.3,0.7,0.7,0.7c0.4,0,0.7-0.4,0.7-0.7v-6.4
		C14.8,29.4,14.5,29.1,14.1,29.1z"/>
	<path class="st0" d="M20.1,10.3c2.6,0,4.5-3.5,4.6-5.8c0-2.5-2-4.5-4.6-4.5c-2.6,0-4.6,2-4.6,4.5C15.5,6.9,17.4,10.3,20.1,10.3z
		 M20.1,1.6c1.6,0,2.9,1.3,3,2.9c0,1.8-1.5,4.2-3,4.2s-3-2.5-3-4.2C17.1,2.9,18.5,1.6,20.1,1.6z"/>
	<path class="st0" d="M22.5,9.7c-0.2,0-0.4,0.1-0.6,0.3l-2.4,3c-0.2,0.2-0.2,0.4-0.2,0.6c0,0.2,0.1,0.4,0.3,0.5
		c0.3,0.3,0.8,0.2,1.1-0.1l2.2-2.7c2.2,0.2,3.9,2,3.9,4.2v5.4c0,0.8-0.6,1.5-1.3,1.8V16c0-0.4-0.4-0.8-0.8-0.8
		c-0.4,0-0.8,0.4-0.8,0.8v16.4c0,0.4,0.4,0.8,0.8,0.8c0.4,0,0.8-0.3,0.8-0.8v-8c1.6-0.4,2.8-1.8,2.9-3.5v-5.4
		C28.3,12.3,25.7,9.7,22.5,9.7z"/>
	<path class="st0" d="M7.9,12.1c1,0,2-0.5,2.7-1.3c-0.2,0.5-0.4,1-0.4,1.6c0,1.9,1.6,4.9,3.9,4.9c2.3,0,4-2.9,3.9-4.9
		c0-2.2-1.7-3.9-3.9-3.9c-1,0-2,0.4-2.7,1.1c0.6-1,0.9-2.1,0.9-3c0-2.4-2-4.3-4.4-4.3c-2.4,0-4.4,1.9-4.4,4.3
		C3.5,8.8,5.4,12.1,7.9,12.1z M14.1,9.9c1.4,0,2.5,1.1,2.5,2.5c0,1.5-1.3,3.5-2.5,3.5c-1.2,0-2.5-2-2.5-3.5
		C11.6,11,12.7,9.9,14.1,9.9z M7.9,3.8c1.6,0,2.8,1.2,2.8,2.8c0,1.7-1.4,4-2.8,4c-1.4,0-2.8-2.3-2.8-4C5.1,5,6.3,3.8,7.9,3.8z"/>
	<path class="st0" d="M8.4,31.3H1.9L5,17.5c0-0.5-0.4-0.8-0.8-0.8c-0.5,0-0.8,0.3-0.8,0.7l-1.5,6.7c-0.2-0.1-0.2-0.2-0.3-0.4
		c-0.1-0.3-0.1-0.9-0.1-1.4v-5.2c0-2.1,1.6-3.8,3.7-4l2.1,2.6c0.3,0.3,0.8,0.4,1.1,0.1c0.2-0.1,0.3-0.3,0.3-0.5
		c0-0.2-0.1-0.4-0.2-0.6l-2.3-2.9c-0.1-0.2-0.4-0.3-0.6-0.3C2.5,11.5,0,14,0,17v5.1c0,0.8,0,2.8,1.6,3.4l-1.5,6.6
		c0,0.5,0.4,0.8,0.8,0.8c0,0,0,0,0,0c0,0,0,0,0.1,0h7.3c0.4,0,0.8-0.4,0.8-0.8V32C9.1,31.6,8.8,31.3,8.4,31.3z"/>
</g>
</svg>
