<?xml version="1.0" encoding="utf-8"?>
<!-- Generator: Adobe Illustrator 24.1.2, SVG Export Plug-In . SVG Version: 6.00 Build 0)  -->
<svg version="1.1" id="Layer_1" xmlns="http://www.w3.org/2000/svg" xmlns:xlink="http://www.w3.org/1999/xlink" x="0px" y="0px"
	 viewBox="0 0 36.9 36.9" style="enable-background:new 0 0 36.9 36.9;" xml:space="preserve">
<style type="text/css">
	.st0{fill:#73BA62;}
</style>
<g>
	<path class="st0" d="M17,27c-0.2-0.1-0.4-0.1-0.6-0.1c-0.2,0-0.4,0.1-0.5,0.3c-1.8,2.4-3.5,4.2-4.3,5c-2-2-10.1-10.5-10.1-20.1
		c0-2.5,0.7-10.6,10.1-10.5c9.4,0,10.1,8.1,10.1,10.6c0,0.9-0.1,1.8-0.2,2.8c-0.1,0.4,0.2,0.7,0.6,0.8c0.5,0.1,0.8-0.2,0.9-0.6
		c0.1-1.1,0.2-2.1,0.2-3.1C23.3,4.5,19,0,11.6,0C4.3,0,0,4.5,0,12.1c0,11.7,10.7,21.3,11.1,21.7c0.1,0.1,0.3,0.2,0.5,0.2
		c0.2,0,0.4-0.1,0.6-0.2c0,0,2.4-2.2,5-5.7c0.1-0.2,0.1-0.4,0.1-0.6S17.2,27.1,17,27z"/>
	<path class="st0" d="M4.8,11.7c0,3.8,3.1,6.8,6.8,6.8c3.8,0,6.8-3,6.8-6.7C18.5,8,15.3,5,11.6,5C7.9,5,4.8,8,4.8,11.7z M11.6,17.1
		c-2.9,0-5.3-2.4-5.3-5.3c0-2.9,2.4-5.3,5.3-5.3c2.9,0,5.3,2.4,5.3,5.3C16.9,14.7,14.5,17.1,11.6,17.1z"/>
	<path class="st0" d="M36.4,33.4l-6.6-6.6c-0.5-0.5-1.4-0.6-2-0.2l-0.6-0.6c0.8-1,1.2-2.2,1.2-3.6c0-1.6-0.7-3.1-1.8-4.2
		s-2.6-1.7-4.2-1.7c-1.6,0-3,0.6-4.2,1.7c-1.2,1.1-1.8,2.6-1.8,4.2c0,1.6,0.7,3.1,1.8,4.2c1.1,1.1,2.6,1.7,4.2,1.7
		c1.4,0,2.7-0.5,3.7-1.3l0.6,0.6c-0.2,0.3-0.3,0.7-0.3,1c0,0.5,0.2,0.9,0.5,1.2l6.6,6.6c0.3,0.3,0.8,0.5,1.2,0.5
		c0.5,0,0.9-0.2,1.1-0.6l0.6-0.6C37,35.1,37,34,36.4,33.4z M28,28.6L28,28.6l0.2-0.3c0.1,0,0.1-0.1,0.2-0.1c0.1-0.1,0.1-0.1,0.1-0.2
		l0.1-0.1h0.1h0.1l6.6,6.6c0.1,0,0.1,0.1,0,0.2l-0.6,0.6c0,0.1-0.1,0.1-0.2,0L28,28.6L28,28.6z M22.4,17.9c1.2,0,2.3,0.5,3.2,1.3
		c0.8,0.9,1.3,2,1.3,3.2s-0.5,2.4-1.3,3.2c-0.9,0.8-2,1.3-3.2,1.3c-1.2,0-2.4-0.4-3.2-1.3c-0.8-0.9-1.3-2-1.3-3.2s0.5-2.4,1.3-3.2
		C20.1,18.4,21.2,17.9,22.4,17.9z"/>
</g>
</svg>
