<?xml version="1.0" encoding="utf-8"?>
<!-- Generator: Adobe Illustrator 24.1.2, SVG Export Plug-In . SVG Version: 6.00 Build 0)  -->
<svg version="1.1" id="Layer_1" xmlns="http://www.w3.org/2000/svg" xmlns:xlink="http://www.w3.org/1999/xlink" x="0px" y="0px"
	 viewBox="0 0 36.9 36.9" style="enable-background:new 0 0 36.9 36.9;" xml:space="preserve">
<style type="text/css">
	.st0{fill:#73BA62;}
</style>
<g>
	<path class="st0" d="M12.7,28.9c-0.6-0.5-1.4-0.9-2.2-1.1l-1.1-0.3c-0.2-0.2-0.4-0.2-0.6-0.2c0,0,0,0,0,0l-0.1,0
		c1.4-0.6,2.4-2,2.4-3.7v-2.9c0-0.1,0-0.2,0-0.3c0.2-0.2,0.2-0.5,0-0.8c-0.1-0.1-0.1-0.1-0.2-0.2c-0.5-1.6-1.9-2.7-3.7-2.7
		c-2,0-3.8,1.7-3.9,3.8c0,0.1,0,0.2,0,0.3v2.8c0,1.6,0.9,2.9,2.2,3.6l-0.3,0.1c-0.1,0-0.2,0-0.3,0.1l-1.4,0.4
		c-0.9,0.2-1.6,0.6-2.2,1.1c-0.8,0.6-1.2,1.3-1.2,2v3c0,1.7,1.3,3,2.9,3H11c1.6,0,2.9-1.4,2.9-3v-3C13.9,30.2,13.5,29.5,12.7,28.9z
		 M11,35.3H2.9c-0.8,0-1.5-0.7-1.5-1.5v-3c0-0.2,0.2-0.5,0.7-0.9c0.5-0.3,1.1-0.6,1.7-0.8l0.6-0.2c0.2,1.7,1.3,3,2.6,3
		c1.3,0,2.4-1.3,2.6-3l0.5,0.2c0.7,0.1,1.2,0.4,1.7,0.8c0.5,0.4,0.7,0.7,0.7,0.9v3C12.5,34.6,11.8,35.3,11,35.3z M4.6,21
		c0.5-0.6,1-0.9,1.3-0.8C6,20.3,6,20.3,6.2,20.6c0.2,0.2,0.5,0.5,0.9,0.7c0.3,0.1,0.7,0.2,1.1,0.2c0.4,0,0.9-0.1,1.4-0.3v2.4
		c0,1.4-1.1,2.5-2.5,2.5c-1.4,0-2.5-1.1-2.5-2.5V21z M7.9,19.9c-0.2-0.1-0.3-0.2-0.5-0.4c-0.3-0.2-0.6-0.6-1.1-0.7
		c-0.3-0.1-0.6,0-0.8,0c0.4-0.4,1-0.6,1.6-0.6c1,0,1.9,0.6,2.3,1.6C8.6,20.1,8.1,20.1,7.9,19.9z M6,28.5C6,28.5,6.1,28.5,6,28.5
		c0.4,0,0.6-0.2,0.7-0.4c0,0,0,0,0-0.1c0,0,0,0,0,0c0.1-0.1,0.1-0.3,0.1-0.5c0.1,0,0.2,0,0.3,0c0,0,0.1,0,0.1,0c0,0.1,0,0.3,0,0.4
		c0.1,0.3,0.3,0.5,0.7,0.5c0,0,0.1,0,0.1,0l0.2,0.1c0,1-0.6,1.9-1.2,1.9c-0.7,0-1.2-0.9-1.2-1.9L6,28.5z"/>
	<path class="st0" d="M35.6,28.9c-0.6-0.5-1.4-0.9-2.2-1.1l-1.1-0.3c-0.2-0.2-0.4-0.2-0.6-0.2c0,0,0,0,0,0l-0.1,0
		c1.4-0.6,2.4-2,2.4-3.7v-2.9c0-0.1,0-0.2,0-0.3c0,0,0,0,0-0.1c0-0.2,0-0.4-0.1-0.6c0,0,0,0,0,0c-0.4-1.7-1.9-3-3.8-3
		c-2,0-3.7,1.6-3.9,3.7c-0.2,0.2-0.2,0.5,0,0.8v2.4c0,1.6,0.9,2.9,2.2,3.6v0l-0.2,0.1c-0.2-0.1-0.3,0-0.5,0.1c0,0,0,0-0.1,0.1
		l-1.2,0.3c-0.9,0.2-1.6,0.6-2.2,1.1c-0.8,0.6-1.2,1.3-1.2,2v3c0,1.7,1.3,3,2.9,3h8.1c1.6,0,3-1.4,2.9-3v-3
		C36.8,30.2,36.4,29.5,35.6,28.9z M27.5,21c0.5-0.5,1-0.8,1.2-0.7c0.1,0,0.2,0.1,0.4,0.3c0.2,0.2,0.5,0.5,0.9,0.7
		c0.3,0.1,0.7,0.2,1.1,0.2c0.4,0,0.9-0.1,1.4-0.3v2.4c0,1.4-1.1,2.5-2.5,2.5s-2.5-1.1-2.5-2.5V21z M31.4,20.1c-0.1,0-0.2,0-0.2,0
		c-0.2,0-0.4-0.1-0.5-0.1c-0.2-0.1-0.3-0.2-0.5-0.4c-0.3-0.2-0.6-0.6-1.1-0.7c-0.3-0.1-0.6,0-0.9,0c0.4-0.4,1.1-0.7,1.8-0.7
		c1,0,1.9,0.7,2.3,1.6C32,20,31.7,20.1,31.4,20.1z M29.2,28.5c0.4-0.1,0.6-0.5,0.5-0.9v0c0.1,0,0.2,0,0.3,0c0,0,0.1,0,0.1,0v0.2
		c0,0,0,0,0,0.1c0,0,0,0.1,0,0.1c0,0,0,0.1,0,0.1c0,0,0,0.1,0,0.1c0,0,0.1,0.1,0.1,0.1c0,0,0,0,0,0c0.1,0.1,0.2,0.1,0.3,0.2l0.5,0.1
		c0,0.9-0.5,1.8-1.2,1.8c-0.7,0-1.1-0.8-1.2-1.8L29.2,28.5z M29.9,31.9c1.3,0,2.4-1.2,2.6-2.9l0.5,0.2c0.7,0.1,1.2,0.4,1.7,0.8
		c0.5,0.4,0.7,0.7,0.7,0.9v3c0,0.8-0.7,1.5-1.5,1.5h-8.1c-0.8,0-1.5-0.7-1.5-1.5v-3c0-0.2,0.2-0.5,0.7-0.9c0.5-0.4,1-0.6,1.7-0.8
		l0.6-0.2C27.5,30.7,28.6,31.9,29.9,31.9z"/>
	<path class="st0" d="M12.4,6.7h9.9C22.7,6.7,23,6.3,23,6c0-0.4-0.3-0.7-0.7-0.7h-9.9c-0.4,0-0.7,0.3-0.7,0.7
		C11.7,6.4,12,6.7,12.4,6.7z"/>
	<path class="st0" d="M18.2,9.6c0.4,0,0.8-0.3,0.7-0.7c0-0.4-0.3-0.7-0.7-0.7h-5.8c-0.4,0-0.7,0.3-0.7,0.7c0,0.4,0.3,0.7,0.7,0.7
		H18.2z"/>
	<path class="st0" d="M24.9,19.4c0.1,0.1,0.3,0.2,0.5,0.2c0.1,0,0.1,0,0.1-0.1c0.1,0,0.2-0.1,0.2-0.2c0.1-0.1,0.2-0.2,0.2-0.4v-0.1
		v-2.7c1.5-1.1,2.3-2.7,2.3-4.3c0,0,0,0,0,0c0,0,0,0,0-0.1c0-1.1-0.4-2.3-1.2-3.3c-0.1-0.2-0.3-0.3-0.5-0.3c0,0,0,0,0,0
		c0-0.2,0-0.5,0-0.7c0-4.1-4.1-7.4-9.2-7.4c-5.1,0-9.2,3.3-9.2,7.4c0,2,1,3.9,2.8,5.3v3.4c0,0.3,0.1,0.6,0.4,0.7
		c0.1,0.1,0.2,0.1,0.3,0.1c0.2,0,0.4-0.1,0.5-0.3l2.2-2.2c0,0,0,0,0.1,0c0,0.1-0.1,0.2-0.1,0.3c0,0.2,0.1,0.4,0.2,0.5
		c1.4,1.7,3.8,2.7,6.3,2.7c0.8,0,1.6-0.1,2.4-0.3L24.9,19.4z M12.1,11.7C10.5,10.6,9.6,9,9.6,7.4c0-3.2,3.5-5.9,7.8-5.9
		c4.2,0,7.8,2.7,7.8,5.9s-3.5,5.9-7.8,5.9c-1,0-2-0.2-3-0.5c-0.2-0.1-0.5,0-0.7,0.2l-1.3,1.3v-2C12.4,12.1,12.3,11.8,12.1,11.7z
		 M17.3,14.8c4.2,0,7.6-2.2,8.8-5.2c0.5,0.6,0.7,1.3,0.7,2.1c0,1.3-0.7,2.5-1.9,3.4c-0.2,0.1-0.3,0.4-0.3,0.6V17l-0.8-0.8
		c-0.2-0.2-0.4-0.3-0.7-0.2c-0.8,0.3-1.6,0.4-2.4,0.4c-1.9,0-3.6-0.6-4.8-1.7C16.4,14.8,16.9,14.8,17.3,14.8z M26.7,9.6
		c-0.1-0.1-0.2-0.2-0.3-0.4c-0.1-0.1-0.1-0.1-0.1-0.2C26.5,9.2,26.6,9.4,26.7,9.6z"/>
</g>
</svg>
