<?xml version="1.0" encoding="utf-8"?>
<!-- Generator: Adobe Illustrator 24.1.2, SVG Export Plug-In . SVG Version: 6.00 Build 0)  -->
<svg version="1.1" id="Layer_1" xmlns="http://www.w3.org/2000/svg" xmlns:xlink="http://www.w3.org/1999/xlink" x="0px" y="0px"
	 viewBox="0 0 36.9 36.9" style="enable-background:new 0 0 36.9 36.9;" xml:space="preserve">
<style type="text/css">
	.st0{fill:#73BA62;}
</style>
<g>
	<path class="st0" d="M15.7,26.8c-0.8-0.6-1.7-1.1-2.7-1.4l-2.5-0.7v0c1.8-0.7,3-2.5,3-4.6v-3.8c0-0.1,0-0.2,0-0.3
		c0-0.1,0.1-0.1,0.1-0.2c0-0.2,0-0.4-0.1-0.6c0-0.1-0.1-0.2-0.2-0.2c-0.6-2.1-2.4-3.7-4.6-3.7c-2.6,0-4.8,2.3-4.8,5V20
		c0,2.1,1.2,3.8,2.9,4.6v0.2l-2.6,0.7c-1,0.3-1.9,0.8-2.7,1.4c-1,0.8-1.5,1.7-1.5,2.5v3.9c0,2,1.6,3.6,3.5,3.6h10.2
		c1.9,0,3.5-1.7,3.5-3.7v-3.9C17.2,28.4,16.7,27.6,15.7,26.8z M5.4,20v-3.3c0.8-0.9,1.4-1.3,1.9-1.2c0.1,0,0.2,0.1,0.5,0.4
		c0.3,0.3,0.6,0.7,1.1,0.9c0.4,0.2,0.8,0.3,1.3,0.3c0.5,0,1.1-0.1,1.8-0.4V20c0,1.9-1.5,3.4-3.3,3.4S5.4,21.9,5.4,20z M8.7,12.9
		c1.4,0,2.7,0.9,3.1,2.2c-1.2,0.6-1.8,0.4-2.2,0.3c-0.2-0.1-0.4-0.3-0.6-0.5c-0.3-0.4-0.7-0.7-1.3-0.9c-0.5-0.1-1-0.1-1.5,0.2
		C6.8,13.4,7.7,12.9,8.7,12.9z M7.9,26.2c0.4-0.2,0.6-0.6,0.5-1c0-0.1-0.1-0.2-0.1-0.2c0.1,0,0.3,0,0.4,0c0.1,0,0.2,0,0.3,0
		c0,0,0,0.1-0.1,0.1c-0.1,0.5,0.1,0.9,0.5,1l0.8,0.2c0,1.4-0.7,2.6-1.6,2.6c-0.8,0-1.6-1.1-1.6-2.5L7.9,26.2z M8.6,30.5
		c1.6,0,2.9-1.6,3.1-3.7l0.8,0.2c0.9,0.2,1.6,0.6,2.2,1.1c0.6,0.4,0.9,0.9,0.9,1.2v3.9c0,1.2-0.9,2.1-2,2.1H3.4c-1.1,0-2-1-2-2.1
		v-3.9c0-0.3,0.3-0.7,0.9-1.2c0.6-0.5,1.4-0.9,2.2-1.1l1-0.2C5.7,28.8,7,30.5,8.6,30.5z"/>
	<path class="st0" d="M35.4,26.8c0.9-5.1,0.4-9.2-1.5-12c-1.6-2.5-3.8-3-3.8-3c-2.1-0.7-3.6-0.1-3.9,0c-0.8,0.2-7.5,2.6-5.4,15.1
		c0,0,0,0,0,0c-1,0.8-1.5,1.7-1.5,2.5v3.9c0,2,1.6,3.6,3.5,3.6h10.6c1.9,0,3.5-1.7,3.5-3.7v-3.9C36.9,28.4,36.4,27.6,35.4,26.8z
		 M26.4,26.3l0.7-0.2c0.4-0.2,0.6-0.6,0.5-1c0-0.1,0-0.1-0.1-0.2c0.2,0,0.4,0.1,0.6,0.1c0.2,0,0.3,0,0.5-0.1c0,0.1-0.1,0.1-0.1,0.2
		c-0.1,0.5,0.1,0.9,0.5,1l0.9,0.3c0,0.9-0.3,1.7-0.8,2.1c-0.2,0.2-0.5,0.4-0.9,0.4h-0.1c-0.4,0.1-0.7-0.1-0.9-0.3
		c-0.5-0.4-0.8-1.3-0.8-2.2C26.4,26.4,26.4,26.4,26.4,26.3z M24.7,17.7c0.6,0.1,1.4,0.3,2.3,0.3c1.6,0,3.1-0.4,4.3-1.3V20
		c0,1.9-1.5,3.4-3.3,3.4s-3.3-1.5-3.3-3.4V17.7z M32.7,25.4L30,24.7v-0.1c1.7-0.8,2.9-2.5,2.8-4.6v-3.8c0-0.2,0-0.3,0-0.4
		c1.2,1.8,2.1,4.9,1.3,10.2C33.7,25.8,33.2,25.6,32.7,25.4z M31.3,14.8c-2.3,2.3-5.9,1.5-6.8,1.2c-0.1-0.1-0.3-0.2-0.4-0.2
		c-0.2,0-0.4,0.1-0.5,0.3c-0.1,0.1-0.1,0.2-0.2,0.3c0,0.1,0,0.3,0,0.4V20c0,2,1.2,3.7,2.8,4.5v0.2l-2.6,0.7
		c-0.5,0.1-0.9,0.3-1.3,0.5c-1.7-11.1,4.1-12.6,4.4-12.7c0.1,0,0.1-0.1,0.2-0.1c0,0,1.1-0.5,2.9,0.1c0,0,0.9,0.2,1.9,1.1
		C31.4,14.5,31.3,14.6,31.3,14.8z M21.7,28.1c0.1-0.1,0.1-0.1,0.2-0.1c0.1-0.1,0.2-0.1,0.3-0.2c0.5-0.3,1.1-0.6,1.7-0.7l0.9-0.3
		c0.1,2,1.5,3.8,3.1,3.8H28c0.1,0,0.1,0,0.2,0c1.7,0,3-1.7,3.2-3.7l0.8,0.2c0.9,0.2,1.6,0.6,2.2,1.1c0.6,0.4,0.9,0.9,0.9,1.2v3.9
		c0,1.2-0.9,2.1-2,2.1H22.8c-1.1,0-2-1-2-2.1v-3.9C20.8,29,21.1,28.6,21.7,28.1z"/>
	<path class="st0" d="M18.4,15.1c0.8-0.7,6.4-5.4,7.2-8.3c0.5-1.5,0.4-3.4-0.4-4.7c-0.7-1.2-1.7-1.8-3-2c-2.1-0.2-3.6,1-4.4,1.8
		c-0.8-0.8-2.3-2-4.4-1.8c-1.3,0.2-2.3,0.9-3,2C9.7,3.3,9.5,4.9,10,6.3c0,0.2,0.1,0.3,0.1,0.5c0.9,3,6.6,7.9,7.3,8.4
		c0.1,0.1,0.2,0.2,0.4,0.2c0.1,0,0.2-0.1,0.4-0.1c0,0,0,0,0,0C18.2,15.2,18.3,15.2,18.4,15.1z M11.7,2.9c0.3-0.5,0.8-1.2,1.9-1.3
		c0.1,0,0.3,0,0.4,0c2,0,3.2,1.8,3.1,1.9c0.3,0.4,0.9,0.4,1.2,0c0.1-0.1,1.4-2.2,3.7-1.9c1,0.2,1.6,0.8,1.9,1.3
		c0.6,0.9,0.7,2.3,0.3,3.4c-0.7,2.3-5.1,6.3-6.4,7.4c-1.2-1.1-5.7-5.1-6.4-7.4C11,5.2,11.1,3.8,11.7,2.9z"/>
</g>
</svg>
